<?xml version="1.0" encoding="UTF-8"?>
<!DOCTYPE svg PUBLIC "-//W3C//DTD SVG 1.1//EN" "http://www.w3.org/Graphics/SVG/1.1/DTD/svg11.dtd">
<!-- Creator: CorelDRAW 2017 -->
<?xml-stylesheet href="3980-contacts_bg-f6ece014-33c1-41b2-8e0a-b16d9d839713.css" type="text/css"?>
<svg xmlns="http://www.w3.org/2000/svg" xml:space="preserve" width="800px" height="800px" version="1.1" style="shape-rendering:geometricPrecision; text-rendering:geometricPrecision; image-rendering:optimizeQuality; fill-rule:evenodd; clip-rule:evenodd"
viewBox="0 0 800 800" xmlns:xlink="http://www.w3.org/1999/xlink">
  <path fill="#e3e3e4" d="M718.4 743.04l0 -599.52c0,-32.61 -26.86,-60.43 -60.43,-60.43l-599.52 0c-32.62,0 -60.43,26.86 -60.43,60.43l0 599.52c0,32.62 26.85,60.43 60.43,60.43l599.52 0c33.57,-0.96 60.43,-27.81 60.43,-60.43l0 0z"/>
  <path fill="#e4e5e6" d="M59.41 802.51l599.52 0c32.61,0 -300.24,-319.42 -300.24,-319.42 0,0 -332.86,319.42 -299.28,319.42l0 0z"/>
  <path fill="#f4f5f5" d="M718.4 743.04l0 -599.52c0,-32.61 -319.43,300.24 -319.43,300.24 0,0 319.43,331.9 319.43,299.28l0 0z"/>
  <path fill="#fcfcfc" d="M658.93 802.51c32.61,0 60.43,-26.85 60.43,-60.43l0 -4.79 -314.63 -314.63 -65.23 65.22 314.63 314.63 4.8 0z"/>
  <path fill="#f6f6f6" d="M718.4 143.52c0,-32.61 -26.86,-60.43 -60.43,-60.43l-4.8 0 -654.2 655.15 0 4.8c0,32.62 26.86,60.43 60.44,60.43l4.79 0 654.2 -654.19 0 -5.76z"/>
  <path fill="#eaebec" d="M598.5 3.47c-110.32,0 -199.53,89.21 -199.53,199.52 0,136.21 153.48,186.09 186.1,397.13 1.92,13.42 1.92,23.02 13.43,23.02 11.51,0 11.51,-9.6 13.42,-23.02 33.58,-211.04 186.1,-260.92 186.1,-397.13 0,-110.31 -89.21,-199.52 -199.52,-199.52l0 0z"/>
  <path fill="#dadadb" d="M668.52 202.99c0,38.37 -31.66,70.03 -70.02,70.03 -38.37,0 -70.03,-31.66 -70.03,-70.03 0,-38.37 31.66,-70.02 70.03,-70.02 38.36,0 70.02,31.65 70.02,70.02l0 0z"/>
  <path fill="#ffffff" d="M168.76 213.54l0 42.21 59.47 0c-7.67,25.9 -28.78,44.13 -59.47,44.13 -36.45,0 -66.19,-29.74 -66.19,-66.19 0,-36.45 29.74,-66.19 66.19,-66.19 16.31,0 31.65,5.76 43.16,16.31l30.7 -30.7c-19.18,-18.22 -45.08,-28.78 -73.86,-28.78 -60.43,0 -110.31,48.93 -110.31,110.32 0,60.43 48.92,110.31 110.31,110.31 95.92,0 112.23,-86.33 103.6,-129.5l-103.6 -1.92z"/>
</svg>
