<svg id="Слой_1" xmlns="http://www.w3.org/2000/svg" viewBox="0 0 26 22"><style>.st0{fill:#fff}</style><path class="st0" d="M6.8 19.4c.5 0 .9-.5.9-.9l-.4-5.8c0-.5-.4-.8-.9-.8s-.8.4-.8.9l.4 5.8c-.1.4.3.8.8.8zM9.8 19.3c.5 0 .9-.4.9-.9v-6c0-.5-.4-.9-.9-.9s-.9.4-.9.9v6c0 .5.4.9.9.9zM12.9 19.2c.5 0 .9-.4.9-.9v-5.8c0-.5-.4-.9-.9-.9s-.9.4-.9.9v5.8c0 .5.4.9.9.9zM19.2 19.2c.5 0 .9-.4.9-.8.2-3.7.3-5.6.3-5.7 0-.5-.4-.9-.9-.9s-.9.4-.9.9c0 .2-.2 3.5-.2 5.6-.1.5.3.9.8.9zM16 19.2c.5 0 .9-.4.9-.9v-5.9c0-.5-.4-.9-.9-.9s-.9.4-.9.9v5.9c0 .5.4.9.9.9z"/><path class="st0" d="M24.8 7.3h-8.4l2.1-3c1 .1 1.8-.6 2-1.5.1-1-.6-1.8-1.5-2-1-.1-1.8.6-2 1.5 0 .3 0 .6.1.9l-2.8 4.1h-2.6l-3-4c.2-.3.2-.6.2-.9-.1-1-1-1.6-2-1.5-1 .1-1.6 1-1.5 2 .1 1 1 1.6 2 1.5l2.1 3H1.1c-.5 0-.9.4-.9.9v1.9c0 .5.4.9.9.9h.7l1.5 9.5c.1.4.4.7.9.7h17.4c.4 0 .8-.3.9-.7L24 11h.7c.5 0 .9-.4.9-.9V8.2c0-.5-.4-.9-.8-.9zm-3.9 12.2H5L3.6 11h18.7l-1.4 8.5z"/></svg>