<svg id="Слой_1" xmlns="http://www.w3.org/2000/svg" viewBox="0 0 43 32"><style>.st0{fill:#3c2313}</style><path class="st0" d="M38.1 24.3l3.8-16.9v-.2c0-.5-.4-.9-.9-.9H10.9l-1.3-5C9.5.9 9.1.7 8.7.7H1.6c-.5 0-.9.4-.9.9s.4.9.9.9H8l5.9 21.8c.1.3.3.5.5.6-.4.6-.6 1.2-.6 2 0 2.1 1.7 3.8 3.8 3.8s3.8-1.7 3.8-3.8c0-.7-.2-1.3-.5-1.9h10.4c-.3.6-.5 1.2-.5 1.9 0 2.1 1.7 3.8 3.8 3.8s3.8-1.7 3.8-3.8c0-.7-.2-1.4-.6-2 .1-.1.3-.3.3-.6zM34.3 8.2h5.5l-.8 3.7h-5.1l.4-3.7zm-22.9 0h6.2L18 12h-5.6l-1-3.8zm2.5 9.3l-1-3.8h5.3l.4 3.8h-4.7zm.5 1.9h4.4l.4 3.8h-3.9l-.9-3.8zm3.1 9.4c-1 0-1.9-.8-1.9-1.9 0-1 .8-1.9 1.9-1.9s1.9.8 1.9 1.9c0 1-.8 1.9-1.9 1.9zm7.5-5.6h-3.8l-.4-3.8H25v3.8zm0-5.7h-4.5l-.4-3.8H25v3.8zm0-5.6h-5.1l-.4-3.8H25v3.8zm5.8 11.3H27v-3.8h4.3l-.5 3.8zm.6-5.7h-4.5v-3.8h4.9l-.4 3.8zm.6-5.6h-5.1V8.2h5.5l-.4 3.7zm2.4 16.9c-1 0-1.9-.8-1.9-1.9 0-1 .8-1.9 1.9-1.9s1.9.8 1.9 1.9c0 1-.8 1.9-1.9 1.9zm2.1-5.6h-3.8l.4-3.8h4.2l-.8 3.8zm-3.2-5.7l.4-3.8h4.9l-.8 3.8h-4.5z" id="Shopping_Cart"/></svg>