<svg id="Слой_1" xmlns="http://www.w3.org/2000/svg" viewBox="0 0 18 18"><style>.st0{fill:#2c2c2c}</style><path class="st0" d="M15.2.2H3c-.5 0-.9.4-.9.9v16c0 .5.4.9.9.9h12.1c.5 0 .9-.4.9-.9v-16c0-.5-.4-.9-.8-.9zm.2 16.8c0 .1-.1.3-.3.3H3c-.1 0-.3-.1-.3-.3V1c0-.1.1-.3.3-.3h12.1c.1 0 .3.1.3.3v16zm0 0"/><path class="st0" d="M3.7 16.4h3.2v-3.2H3.7v3.2zm.5-2.6h2.1v2.1H4.2v-2.1zm0 0M7.5 16.4h3.2v-3.2H7.5v3.2zm.6-2.6h2.1v2.1H8.1v-2.1zm0 0M11.3 16.4h3.2V9.3h-3.2v7.1zm.6-6.5H14v5.9h-2.1V9.9zm0 0M3.7 12.6h3.2V9.3H3.7v3.3zm.5-2.7h2.1V12H4.2V9.9zm0 0M7.5 12.6h3.2V9.3H7.5v3.3zm.6-2.7h2.1V12H8.1V9.9zm0 0M3.7 8.8h3.2V5.5H3.7v3.3zm.5-2.7h2.1v2.1H4.2V6.1zm0 0M7.5 8.8h3.2V5.5H7.5v3.3zm.6-2.7h2.1v2.1H8.1V6.1zm0 0M11.3 8.8h3.2V5.5h-3.2v3.3zm.6-2.7H14v2.1h-2.1V6.1zm0 0M3.7 4.6h10.9V1.7H3.7v2.9zm.5-2.3H14V4H4.2V2.3zm0 0"/></svg>