<svg id="Слой_1" xmlns="http://www.w3.org/2000/svg" xmlns:xlink="http://www.w3.org/1999/xlink" viewBox="0 0 17 17"><style>.st0{clip-path:url(#SVGID_2_)}</style><defs><path id="SVGID_1_" d="M0 0h16.6v17H0z"/></defs><clipPath id="SVGID_2_"><use xlink:href="#SVGID_1_" overflow="visible"/></clipPath><path class="st0" d="M16.4 7.6L8.2 0 .1 7.6c-.1.1-.1.3 0 .4.1.1.3.1.4 0l.9-.9v9.5h13.7V7.2l.9.8c.1.1.1.1.2.1s.2 0 .2-.1c.1-.1.1-.3 0-.4zm-1.9 8.5H2V6.6L8.3.8l6.3 5.8v9.5zm0 0"/><path d="M3.8 10.4h3.8V6.6H3.8v3.8zm.6-3.3h2.7v2.7H4.4V7.1zm0 0M12.5 6.6H8.7v3.8h3.8V6.6zM12 9.9H9.2V7.1H12v2.8zm0 0M3.8 15.3h3.8v-3.8H3.8v3.8zm.6-3.3h2.7v2.7H4.4V12zm0 0M12.5 11.5H8.7v3.8h3.8v-3.8zm-.5 3.3H9.2V12H12v2.8zm0 0"/></svg>