<svg id="Слой_1" xmlns="http://www.w3.org/2000/svg" xmlns:xlink="http://www.w3.org/1999/xlink" viewBox="0 0 22 22"><style>.st0{clip-path:url(#SVGID_2_)}</style><defs><path id="SVGID_1_" d="M.2 0h21.6v22H.2z"/></defs><clipPath id="SVGID_2_"><use xlink:href="#SVGID_1_" overflow="visible"/></clipPath><path class="st0" d="M21.4 9.9L10.8 0 .3 9.9c-.1.1-.2.4 0 .5.1.1.4.2.5 0L2 9.3v12.3h17.7V9.3l1.2 1.1c.1.1.2.1.3.1.1 0 .2 0 .3-.1.1-.2.1-.4-.1-.5zm-2.5 10.9H2.7V8.6l8.1-7.5 8.1 7.5v12.2zm0 0"/><path d="M4.9 13.1h5.2V7.9H4.9v5.2zm.8-4.4h3.7v3.7H5.7V8.7zm0 0M16.7 7.9h-5.2v5.2h5.2V7.9zm-.7 4.4h-3.7V8.7H16v3.6zm0 0M4.9 19.7h5.2v-5.2H4.9v5.2zm.8-4.4h3.7V19H5.7v-3.7zm0 0M16.7 14.6h-5.2v5.2h5.2v-5.2zM16 19h-3.7v-3.7H16V19zm0 0"/></svg>