<svg id="Слой_1" xmlns="http://www.w3.org/2000/svg" viewBox="0 0 23 21"><style>.st0{fill:#fff}</style><path class="st0" d="M22.8 11c0-.2-.1-.4-.3-.5L19.2 9l3.3-1.6c.2-.1.3-.3.3-.5s-.1-.4-.3-.5L11.8 1.3c-.1 0-.1-.1-.2-.1s-.2 0-.2.1L.6 6.4c-.2.1-.3.3-.3.5s.1.4.3.5L3.9 9 .6 10.6c-.2.1-.3.3-.3.5s.1.4.3.5l3.3 1.6-3.3 1.6c-.2.1-.3.3-.3.5s.1.4.3.5l10.8 5.1c.1 0 .1.1.2.1s.2 0 .2-.1l10.8-5.1c.2-.1.3-.3.3-.5s-.1-.4-.3-.5l-3.3-1.6 3.3-1.6c.1-.2.2-.4.2-.6zM2 6.9l9.6-4.6 9.6 4.6-9.6 4.6L2 6.9zm19.1 8.2l-9.6 4.6L2 15.1l3.1-1.5 6.2 3c.1 0 .1.1.2.1s.2 0 .2-.1l6.2-3 3.2 1.5zm-9.5.5L2 11l3.1-1.5 6.2 3c.1 0 .1.1.2.1s.2 0 .2-.1l6.2-3L21 11l-9.4 4.6z" id="Stack_1"/></svg>