<svg id="Слой_1" xmlns="http://www.w3.org/2000/svg" xmlns:xlink="http://www.w3.org/1999/xlink" viewBox="0 0 17 17"><style>.st0{clip-path:url(#SVGID_2_)}.st0,.st1{fill:#7ad06d}</style><defs><path id="SVGID_1_" d="M.2.1h16.6v16.8H.2z"/></defs><clipPath id="SVGID_2_"><use xlink:href="#SVGID_1_" overflow="visible"/></clipPath><path class="st0" d="M8.1.1C3.7.3.2 4 .2 8.4c0 1.3.3 2.6.9 3.7l-.9 4.3c0 .2.2.4.4.4l4.2-1c1.1.5 2.3.8 3.6.9 4.5.1 8.3-3.5 8.4-8 .1-4.9-3.9-8.8-8.7-8.6zm5 12.9c-1.2 1.2-2.9 1.9-4.6 1.9-1 0-2-.2-2.9-.7l-.6-.3-2.6.6.6-2.6-.3-.6c-.5-.9-.7-1.8-.7-2.9 0-1.7.7-3.4 1.9-4.6 1.2-1.2 2.9-1.9 4.6-1.9 1.7 0 3.4.7 4.6 1.9C14.3 5.1 15 6.7 15 8.4c0 1.7-.7 3.4-1.9 4.6zm0 0"/><path class="st1" d="M12.5 10.2l-1.6-.5c-.2-.1-.4 0-.6.2l-.4.4c-.2.2-.4.2-.6.1-.8-.3-2.4-1.7-2.8-2.4-.1-.2-.1-.5 0-.6l.3-.4c.3-.3.3-.5.2-.7l-.7-1.5c-.1-.4-.6-.5-.9-.2-.4.4-1 1-1 1.6-.1 1.1.4 2.5 2.2 4.2 2.1 2 3.8 2.2 4.9 2 .6-.2 1.1-.8 1.4-1.3.2-.3 0-.8-.4-.9zm0 0"/></svg>