<svg id="Слой_1" xmlns="http://www.w3.org/2000/svg" xmlns:xlink="http://www.w3.org/1999/xlink" viewBox="0 0 22 22"><style>.st0{clip-path:url(#SVGID_2_)}.st0,.st1{fill:#7ad06d}</style><defs><path id="SVGID_1_" d="M.3.2h21.4v21.6H.3z"/></defs><clipPath id="SVGID_2_"><use xlink:href="#SVGID_1_" overflow="visible"/></clipPath><path class="st0" d="M10.5.2C4.8.5.3 5.2.3 10.9c0 1.7.4 3.4 1.2 4.8L.4 21.2c-.1.3.2.6.5.5l5.4-1.3c1.4.7 2.9 1.1 4.6 1.1 5.8.1 10.7-4.5 10.8-10.3.2-6.2-5-11.3-11.2-11zm6.4 16.6c-1.6 1.6-3.7 2.4-5.9 2.4-1.3 0-2.6-.3-3.7-.9l-.8-.3-3.3.8.7-3.4-.4-.7c-.6-1.2-.9-2.5-.9-3.8 0-2.2.9-4.3 2.4-5.9 1.6-1.6 3.8-2.5 6-2.5s4.3.9 5.9 2.4c1.6 1.6 2.4 3.7 2.4 5.9.1 2.3-.8 4.4-2.4 6zm0 0"/><path class="st1" d="M16.2 13.2l-2.1-.6c-.3-.1-.6 0-.8.2l-.5.5c-.2.2-.5.3-.8.2-1-.4-3-2.2-3.6-3.1-.2-.3-.1-.6.1-.8L9 9c.2-.2.2-.5.1-.8l-.9-2c-.2-.5-.8-.6-1.2-.3-.6.5-1.3 1.3-1.4 2.1-.1 1.4.5 3.3 2.8 5.5 2.7 2.5 4.9 2.9 6.3 2.5.8-.2 1.4-1 1.9-1.6.3-.5.1-1-.4-1.2zm0 0"/></svg>