<svg id="Слой_1" xmlns="http://www.w3.org/2000/svg" viewBox="0 0 28 28"><style>.st0{fill:#443429}</style><path class="st0" d="M27.8 22.1c0-.5-.2-1-.6-1.3l-.3-.3-5.3-4.1c-.3-.3-.8-.6-1.3-.6-.4 0-.8.1-1.1.4l-1.5 1.5c-.2.3-.6.4-.9.4-.4 0-.8-.2-1-.5-2-1.5-3.9-3.3-5.4-5.3 0 0-.5-.6-.5-1.1 0-.4.2-.7.4-1l1.5-1.5c.2-.3.4-.7.4-1.1 0-.5-.2-1-.6-1.3L7.5 1 7.2.7C6.9.4 6.4.2 5.9.2 3.4.2.3 3.1.3 6.8c0 1 .2 2 .6 2.8 3.8 7.5 10 13.8 17.6 17.6.9.4 1.8.6 2.8.6 3.6 0 6.5-3.2 6.5-5.7zm-6.5 4.4c-.8 0-1.6-.2-2.3-.5-.1 0-.1-.1-.2-.1-7.1-3.6-13-9.5-16.7-16.7 0-.1 0-.1-.1-.2-.3-.7-.5-1.5-.5-2.3 0-3 2.7-5.3 4.4-5.3.2 0 .4.1.4.2l.1.1s0 .1.1.1l4.1 5.3.1.1c.1.1.2.2.2.4 0 .1 0 .2-.1.3L9.4 9.4c-.5.5-.8 1.1-.8 1.8 0 .6.3 1.3.7 1.7v.1c1.5 2.1 3.4 4 5.6 5.6h.1c.5.4 1.1.7 1.7.7.7 0 1.3-.3 1.8-.7l.1-.1 1.4-1.4c.1-.1.2-.1.3-.1.2 0 .4.1.4.2l.1.1 5.3 4.1.1.1c.1 0 .1.1.1.1.1.1.2.2.2.4v.1c0 1.9-2.3 4.4-5.2 4.4z" id="Phone_1_x40_2x.png"/></svg>