<svg id="Слой_1" xmlns="http://www.w3.org/2000/svg" viewBox="0 0 18 18"><style>.st0{fill:#39281c}</style><path class="st0" d="M4.5 13.4l3.5-.6 9.2-9.2c.4-.4.6-.9.6-1.4 0-1.1-.9-2-2-2-.6 0-1.1.2-1.4.6L5.1 10l-.6 3.4zm10.4-12c.2-.3.5-.4.8-.4.7 0 1.2.5 1.2 1.2 0 .3-.1.6-.4.8l-.5.5-1.7-1.7.6-.4zm-1.1 1l1.7 1.7-7.4 7.4V9.8H6.4l7.4-7.4zm-8 8.2h1.5v1.5l-1.8.3.3-1.8zm11.5-4.4c-.2 0-.4.2-.4.4v8.8c0 .9-.7 1.6-1.6 1.6H2.5c-.9 0-1.6-.7-1.6-1.6V2.6c0-.9.8-1.6 1.6-1.6h8.8c.2 0 .4-.2.4-.4s-.2-.4-.4-.4H2.5C1.2.2.1 1.3.1 2.6v12.8c0 1.3 1.1 2.4 2.4 2.4h12.8c1.3 0 2.4-1.1 2.4-2.4V6.6c0-.2-.1-.4-.4-.4z" id="Write_x40_2x.png"/></svg>