<svg id="Слой_1" xmlns="http://www.w3.org/2000/svg" viewBox="0 0 17 17"><style>.st0{fill:#24aef0}.st1{fill:#22d5ff}.st2{fill:#0b97ce}.st3{fill:#0798d8}.st4{fill:#0d83cc}</style><path class="st0" d="M16.5 8.6c0-4.3-3.6-7.8-8-7.8-.5 0-.9 0-1.4.1C6.5.4 5.7.2 4.8.2 2.3.2.2 2.2.2 4.7c0 .8.2 1.6.6 2.3-.1.5-.2 1-.2 1.6 0 4.3 3.6 7.8 8 7.8.5 0 1 0 1.5-.1.6.3 1.4.5 2.2.5 2.5 0 4.6-2 4.6-4.5 0-.7-.2-1.4-.5-2 .1-.5.1-1.1.1-1.7zm-3.8 3.8c-.4.5-.9.9-1.6 1.2-.7.3-1.6.4-2.5.4-1.1 0-2.1-.2-2.8-.6-.5-.3-1-.7-1.3-1.1-.3-.5-.5-1-.5-1.4 0-.3.1-.5.3-.7.2-.2.5-.3.8-.3.3 0 .5.1.7.2.2.2.3.4.5.7.1.3.3.6.5.8.2.2.4.4.7.5.3.1.7.2 1.2.2.7 0 1.2-.1 1.6-.4.4-.3.6-.6.6-1 0-.3-.1-.6-.3-.7-.2-.2-.5-.4-.8-.5-.6-.2-1.1-.3-1.7-.4-.8-.2-1.5-.4-2.1-.6-.6-.2-1-.6-1.4-1-.3-.4-.5-1-.5-1.6 0-.6.2-1.1.5-1.6.4-.4.9-.8 1.6-1 .7-.2 1.4-.4 2.3-.4.7 0 1.3.1 1.9.2.5.2 1 .4 1.3.6.3.3.6.6.8.9.2.3.2.6.2.9 0 .3-.1.5-.3.8-.2.2-.5.3-.8.3-.3 0-.5-.1-.7-.2-.1-.1-.3-.3-.5-.6-.2-.4-.4-.7-.7-.9-.3-.2-.7-.3-1.3-.3-.6 0-1 .1-1.4.3-.3.3-.5.5-.5.8 0 .2.1.3.2.5.1.1.3.3.5.4.2 0 .4.1.6.2.2 0 .6.1 1.1.2.6.1 1.2.3 1.8.5.5.2 1 .4 1.4.6.4.2.7.6.9.9.2.4.3.8.3 1.4-.1.7-.3 1.2-.6 1.8z"/><path class="st1" d="M3.3 14.4l.1.1c-.2-.2-.3-.4-.5-.7.1.3.2.5.4.6zM6.7 14.4c.7.4 1.7.6 2.8.6 1 0 1.8-.1 2.5-.4.7-.3 1.2-.7 1.6-1.2.4-.5.6-1.1.6-1.7 0-.5-.1-1-.3-1.4-.2-.4-.5-.7-.9-.9h-.1c.2.4.3.8.3 1.4 0 .6-.2 1.2-.6 1.7-.4.5-.9.9-1.6 1.2-.6.2-1.5.3-2.4.3-1.1 0-2.1-.2-2.8-.6-.1-.1-.3-.1-.4-.2.3.5.7.9 1.3 1.2z"/><path class="st2" d="M7.4 12c.3.1.7.2 1.2.2.7 0 1.2-.1 1.6-.4.4-.3.6-.6.6-1 0-.3-.1-.6-.3-.7-.1-.1-.2-.1-.3-.2-1 .8-2.1 1.4-3.4 1.6 0 .2.3.4.6.5z"/><path class="st3" d="M16.4 10.3c.1-.5.2-1.1.2-1.7 0-2.7-1.4-5.1-3.6-6.5.1.5.1 1 .1 1.5 0 1.7-.5 3.3-1.4 4.6.1.1.2.1.3.2.4.2.7.6.9.9.2.4.3.8.3 1.4 0 .6-.2 1.2-.6 1.7-.4.5-.9.9-1.6 1.2-.6.3-1.5.4-2.4.4-1.1 0-2.1-.2-2.8-.6-.5-.3-1-.7-1.3-1.1-.1-.2-.3-.4-.3-.6-1.1-.1-2.2-.5-3.2-1 .9 3.4 4 5.8 7.7 5.8.5 0 1 0 1.5-.1.6.3 1.4.5 2.2.5 2.5 0 4.6-2 4.6-4.5-.2-.8-.3-1.5-.6-2.1z"/><path class="st4" d="M16.4 10c-1.2 2.9-3.4 5.2-6.2 6.4.6.3 1.3.5 2 .5 2.5 0 4.6-2 4.6-4.5 0-.7-.2-1.4-.5-2 .1-.2.1-.3.1-.4z"/><g><path class="st1" d="M9.6.9c.7.1 1.4.3 2.1.5-.9-.4-2-.6-3.1-.6-.3 0-.7 0-1 .1.6-.1 1.3-.1 2 0zM14.6 3.4c0 .1 0 .1 0 0 .1.1.1.1.1.2 0 0-.1-.1-.1-.2zM5.3.8c.4 0 .7 0 1.1.1.3 0 .6-.1.9-.1C6.5.4 5.7.2 4.8.2 2.3.2.2 2.2.2 4.7c0 .8.2 1.6.6 2.3-.1.5-.2 1-.2 1.6V9c.1-.6.3-1.1.5-1.5C.8 6.9.6 6.2.6 5.4.6 2.9 2.7.8 5.3.8z"/></g></svg>