<svg id="Слой_1" xmlns="http://www.w3.org/2000/svg" viewBox="0 0 22 22"><style>.st0{fill:#24aef0}.st1{fill:#22d5ff}.st2{fill:#0b97ce}.st3{fill:#0798d8}.st4{fill:#0d83cc}</style><path class="st0" d="M21.1 11c0-5.4-4.5-9.8-9.9-9.8-.6 0-1.1 0-1.7.1-1-.5-2-.8-3.2-.8C3.2.5.6 3 .6 6.1c0 1 .3 2 .8 2.9-.1.6-.2 1.3-.2 2 0 5.4 4.5 9.8 9.9 9.8.6 0 1.2-.1 1.8-.2.8.4 1.7.7 2.7.7 3.2 0 5.8-2.5 5.8-5.7 0-.9-.2-1.8-.6-2.5.2-.7.3-1.4.3-2.1zm-4.9 4.7c-.5.6-1.1 1.2-2 1.5-.9.4-1.9.5-3.1.5-1.4 0-2.6-.2-3.6-.7-.7-.4-1.2-.8-1.6-1.4-.4-.6-.6-1.2-.6-1.8 0-.4.1-.7.4-.9.3-.3.6-.4 1-.4.3 0 .6.1.9.3.2.2.4.5.6.8.2.4.4.7.6 1 .2.3.5.5.8.6.4.2.8.3 1.4.3.8 0 1.5-.2 2-.5s.7-.7.7-1.2c0-.4-.1-.7-.4-.9-.3-.2-.6-.4-1.1-.6-.5-.1-1.1-.3-1.8-.4-1-.2-1.9-.5-2.6-.8-.7-.3-1.3-.7-1.7-1.2-.4-.5-.6-1.2-.6-2 0-.7.2-1.4.7-2 .4-.6 1.1-1 1.9-1.3.9-.4 1.8-.5 2.9-.5.9 0 1.7.1 2.3.3.7.2 1.3.5 1.7.8.4.3.8.7 1 1.1.2.4.3.8.3 1.1 0 .4-.1.7-.4.9-.3.3-.6.4-1 .4s-.7-.1-.9-.3c-.2-.2-.4-.4-.6-.8-.2-.5-.5-.8-.9-1.1-.3-.3-.9-.4-1.7-.4-.7 0-1.3.1-1.7.4-.4.4-.6.7-.6 1.1 0 .2.1.4.2.6.1.2.3.3.6.4.3.1.5.2.8.3.3.1.7.2 1.4.3.8.2 1.5.4 2.2.6.7.2 1.2.5 1.7.8.5.3.9.7 1.1 1.2.3.5.4 1.1.4 1.7 0 .8-.2 1.5-.7 2.2z"/><path class="st1" d="M4.5 18.3l.2.2c-.2-.3-.4-.5-.7-.8.1.1.3.4.5.6zM8.7 18.2c.9.5 2.1.7 3.6.7 1.2 0 2.2-.2 3.1-.5.9-.4 1.6-.9 2-1.5.5-.6.7-1.4.7-2.2 0-.7-.1-1.3-.4-1.7-.3-.5-.6-.9-1.1-1.2 0 0-.1 0-.1-.1.3.5.4 1.1.4 1.7 0 .8-.2 1.5-.7 2.2-.5.6-1.1 1.2-2 1.5-.9.4-1.9.5-3.1.5-1.4 0-2.6-.2-3.6-.7-.2-.1-.3-.2-.5-.3.5.8 1 1.2 1.7 1.6z"/><path class="st2" d="M9.6 15.3c.4.2.8.3 1.4.3.8 0 1.5-.2 2-.5s.7-.7.7-1.2c0-.4-.1-.7-.4-.9-.1-.1-.2-.2-.4-.3-1.2 1-2.7 1.7-4.3 2 .3.2.6.4 1 .6z"/><path class="st3" d="M20.8 13.1c.2-.7.2-1.4.2-2.1 0-3.4-1.8-6.4-4.5-8.2.1.6.2 1.2.2 1.9 0 2.1-.6 4.1-1.8 5.7.1.1.2.1.4.2.5.3.9.7 1.1 1.2.3.5.4 1.1.4 1.7 0 .8-.2 1.5-.7 2.2-.5.6-1.1 1.2-2 1.5-.9.4-1.9.5-3.1.5-1.4 0-2.6-.2-3.6-.7-.7-.4-1.2-.8-1.6-1.4-.2-.3-.3-.5-.4-.8-1.4-.2-2.8-.6-4-1.3 1.1 4.2 5 7.3 9.6 7.3.6 0 1.2-.1 1.8-.2.8.4 1.7.7 2.7.7 3.2 0 5.8-2.5 5.8-5.7.1-.9-.1-1.7-.5-2.5z"/><path class="st4" d="M20.9 12.7c-1.5 3.6-4.3 6.5-7.8 8 .8.4 1.6.6 2.5.6 3.2 0 5.8-2.5 5.8-5.7 0-.9-.2-1.8-.6-2.5.1-.1.1-.2.1-.4z"/><g><path class="st1" d="M12.3 1.4c.9.1 1.8.3 2.6.6-1.2-.5-2.5-.8-3.8-.8-.4 0-.9 0-1.3.1.8-.1 1.6 0 2.5.1zM18.6 4.5c0 .1 0 .1 0 0 .1.1.1.2.2.2-.1 0-.1-.1-.2-.2zM6.9 1.3c.5 0 .9.1 1.3.2.4-.1.8-.2 1.2-.2-.9-.5-1.9-.8-3-.8C3.2.5.6 3 .6 6.1c0 1 .3 2 .8 2.9-.1.6-.2 1.3-.2 2v.5c.1-.7.4-1.3.7-1.8-.5-.9-.7-1.8-.7-2.7 0-3.2 2.6-5.7 5.7-5.7z"/></g></svg>