<svg xmlns="http://www.w3.org/2000/svg" viewBox="0 0 19 19"><path d="M17.1.2H1.8C.9.2.1 1 .1 1.9v15.3c0 .9.8 1.7 1.7 1.7h15.3c.9 0 1.7-.8 1.7-1.7V1.9c0-1-.8-1.7-1.7-1.7zm.9 16.9c0 .5-.4.8-.8.8H1.8c-.4.1-.8-.3-.8-.8V1.9c0-.5.4-.9.8-.9h15.3c.5 0 .9.4.9.9v15.2zM12 5.3H6.9C6 5.3 5.2 6 5.2 7v5c0 .9.8 1.7 1.7 1.7H12c.9 0 1.7-.8 1.7-1.7V7c0-1-.7-1.7-1.7-1.7zm-.8 1.2h1.3v1.3h-1.3V6.5zM9.5 7.8c.9 0 1.7.8 1.7 1.7 0 .9-.8 1.7-1.7 1.7-.9 0-1.7-.8-1.7-1.7 0-.9.7-1.7 1.7-1.7zm3.4 4.2c0 .5-.4.8-.8.8H6.9c-.5 0-.8-.4-.8-.8V9H7v.4c0 1.4 1.1 2.5 2.5 2.5S12 10.8 12 9.4V9h.9v3z"/></svg>