<svg id="Слой_1" xmlns="http://www.w3.org/2000/svg" viewBox="0 0 27 17"><style>.st0{fill:#2c2c2c}</style><path class="st0" d="M20.6 12.3c-.6 0-1.1.2-1.5.6-.4.4-.6.9-.6 1.5s.2 1.1.6 1.5c.4.4 1 .6 1.5.6 1.2 0 2.1-1 2.1-2.1.1-1.2-.9-2.1-2.1-2.1zm0 3.3c-.7 0-1.2-.5-1.2-1.2 0-.6.6-1.2 1.2-1.2s1.2.5 1.2 1.2c0 .6-.5 1.2-1.2 1.2zm0 0M21.2 5.1c-.1 0-.2-.1-.3-.1h-2.4c-.3 0-.5.2-.5.5v3.9c0 .3.2.5.5.5h3.9c.3 0 .5-.2.5-.5V6.8c0-.1-.1-.3-.2-.4l-1.5-1.3zm.6 3.8h-2.9V6h1.8l1.1 1v1.9zm0 0M9 12.3c-.6 0-1.1.2-1.5.6-.4.4-.6.9-.6 1.5s.2 1.1.6 1.5c.4.4 1 .6 1.5.6 1.2 0 2.1-1 2.1-2.1.1-1.2-.9-2.1-2.1-2.1zm0 3.3c-.7 0-1.2-.5-1.2-1.2 0-.6.6-1.2 1.2-1.2s1.2.5 1.2 1.2c0 .6-.5 1.2-1.2 1.2zm0 0M5.9 12.8h-1v-1.3c0-.3-.2-.5-.5-.5s-.5.2-.5.5v1.7c0 .3.2.5.5.5h1.4c.3 0 .5-.2.5-.5.1-.1-.2-.4-.4-.4zm0 0M8.3 10.2c0-.3-.2-.5-.5-.5H2c-.3 0-.5.2-.5.5s.2.5.5.5h5.8c.3 0 .5-.2.5-.5zm0 0M3 8.5h5.8c.3 0 .5-.2.5-.5s-.2-.5-.5-.5L3 7.6c-.3 0-.5.2-.5.5 0 .2.3.4.5.4zm0 0M4 6.4h5.8c.3 0 .5-.2.5-.5s-.2-.5-.5-.5H4c-.3 0-.5.2-.5.5s.2.5.5.5zm0 0"/><path class="st0" d="M24.7 5.7l-3.4-2.8c-.1-.1-.2-.1-.3-.1h-4V1.1c0-.3-.2-.5-.5-.5H4.4c-.2 0-.4.2-.4.5v3.5c0 .3.2.5.5.5s.5-.2.5-.5v-3h11.2v11.3h-3.9c-.3 0-.5.2-.5.5s.2.5.5.5H18c.3 0 .5-.2.5-.5s-.2-.5-.5-.5h-1V3.8h3.8L24 6.3v6.5h-.5c-.3 0-.5.2-.5.5s.2.5.5.5h1c.3 0 .5-.2.5-.5V6.1c-.1-.1-.2-.3-.3-.4zm0 0"/></svg>