<svg id="Слой_1" xmlns="http://www.w3.org/2000/svg" xmlns:xlink="http://www.w3.org/1999/xlink" viewBox="0 0 19 19"><style>.st0{clip-path:url(#SVGID_2_);fill-rule:evenodd;clip-rule:evenodd}</style><path d="M17.1.1H1.8C.9.1.1.9.1 1.8v15.3c0 .9.8 1.7 1.7 1.7h15.3c.9 0 1.7-.8 1.7-1.7V1.8c0-.9-.8-1.7-1.7-1.7zm.9 17c0 .5-.4.8-.8.8H1.8c-.5.1-.8-.3-.8-.8V1.8c0-.4.3-.8.8-.8h15.3c.5 0 .9.4.9.8v15.3z" id="Facebook_Square_x40_2x.png"/><defs><path id="SVGID_1_" d="M2.7 5.7h13.5v7.7H2.7z"/></defs><clipPath id="SVGID_2_"><use xlink:href="#SVGID_1_" overflow="visible"/></clipPath><path class="st0" d="M14.3 10.5c.4.4.9.8 1.3 1.3.2.2.3.4.5.7.2.4 0 .7-.3.8h-2c-.5 0-.9-.2-1.2-.5-.3-.3-.5-.6-.8-.9-.1-.1-.2-.2-.4-.3-.3-.2-.5-.1-.7.2-.2.3-.2.6-.2.9 0 .5-.2.6-.6.6-1 0-1.9-.1-2.8-.6-.8-.4-1.4-1.1-1.9-1.8C4.3 9.5 3.5 8 2.8 6.5c-.2-.4 0-.5.3-.6H5c.3 0 .4.2.5.4.4.9.9 1.7 1.4 2.4.1.2.3.4.5.6.2.2.4.1.5-.1.1-.2.1-.4.1-.6.1-.6.1-1.1 0-1.7-.1-.4-.3-.6-.7-.7-.1 0-.1-.1 0-.2.2-.2.3-.3.6-.3h2.2c.3.1.4.2.5.6v2.5c0 .1.1.5.3.6.2.1.3-.1.4-.2.5-.6.9-1.2 1.2-1.9.1-.3.3-.6.4-.9.1-.2.2-.3.5-.3H15.7c.4.1.5.2.3.6-.2.5-.5 1-.8 1.5-.4.5-.7 1-1.1 1.5-.2.2-.2.4.2.8zm0 0"/></svg>