<svg id="Слой_1" data-name="Слой 1" xmlns="http://www.w3.org/2000/svg" viewBox="0 0 339.43 118.56"><defs><style>.cls-1{fill:#39281c}.cls-2{fill:#6f4936}</style></defs><title>лого Буратино</title><path class="cls-1" d="M234.32 237.47a9.06 9.06 0 0 0-4.1.83 6.63 6.63 0 0 1-1.44.68c-.53 0-.53-1.06-.53-1.37v-3.87c0-3.12.84-5.24 4.33-5.24a5 5 0 0 1 3.72 1.67c.91 1 .83 2.28 2.27 2.28s1.14-1.44 1.14-3-.15-1.37-.15-4.93c0-2.74.15-3.34.15-4.94 0-.68-.15-1.75-1.52-1.75-.84 0-.84.23-2.81.3-.68 0-4.48.08-5.32.08-8.35 0-7.51-.31-9.94-.31-.45 0-1.44.15-1.44 1.06s.38 1.67.68 3.72a55.28 55.28 0 0 1 .39 7.06v29.53a33.49 33.49 0 0 1-.84 7.36c-.3 1.75-.76 2.58-.76 3.19 0 1.06 1.14 1.14 1.52 1.14.91 0 1.75-.15 2.66-.23a29.91 29.91 0 0 1 3.72-.08c4.41 0 3.19.3 6.15.3 8.05 0 9.64-5.77 9.64-9.79v-15c-.01-7.93-4.94-8.69-7.52-8.69zm-.83 22.1c0 1-.23 3.34-2.81 3.34-.76 0-2.58-.15-2.58-3.8v-8.58c0-3.49 1.75-3.42 2.58-3.42s2.81 0 2.81 3.95zM265.91 217.8c-3.34 0-1.45.3-3.57.3-.91 0-2.2-.3-4.1-.3-.38 0-1.82.07-1.82 1.52 0 1.29 1.21 1.74 2.12 4.25 1.14 3.11 1.29 9.11 1.29 12 0 5-.38 10.25-2 10.25-1.37 0-3.19-3.57-3.19-12.15v-12.83c0-2.5-.91-3-2.05-3-2.89 0-1.75.3-3.72.3-1.37 0-1.59-.3-2.81-.3-1.59 0-2 .91-2 1.75 0 1.44 1.07 1.29 1.82 4.41 1.29 5.46.53 11.46 1.9 21s5 11.54 7.59 13c.39.23.91.45.91.84a14.29 14.29 0 0 1-3.42 6.3c-1.67 1.75-4.56 2.81-4.56 4.25 0 1.75 1.36 1.67 2 1.67a20.86 20.86 0 0 0 2.28-.15c.76-.07 1.59-.15 2.43-.15 2.5 0 3.11.3 4 .3 3.11 0 6-15.19 6.68-19.44 1.59-10.33 1.9-26.19 1.9-31.05.06-2.57-1-2.77-1.68-2.77zM273.88 217.8c-2.59 0-2.59 1.44-2.59 2.13 0 2.43.54 3.5.54 13.36v20.12c0 13.21-1.14 11.08-1.14 15.87a1.65 1.65 0 0 0 1.89 1.67 16 16 0 0 0 1.83-.23 15.25 15.25 0 0 1 2.65-.08c.91 0 1.83 0 2.73.08s1.67.23 2.51.23a1.3 1.3 0 0 0 1.51-1.37 3.73 3.73 0 0 0-1.21-2.5 13.25 13.25 0 0 1-2.43-8.35c0-2.28.07-2 3.11-2.51 4.1-.76 10.25-3.34 10.25-19 .01-14.71-4.01-19.42-19.65-19.42zm8.43 30.37c-2.28 0-2.13-4.71-2.13-8.12s-.23-8.12 1.9-8.12c1.52 0 3.11 2.73 3.11 7.82 0 6.25-1.44 8.42-2.88 8.42zM320 262.9c-1.37-6.84-1.14-9.87-2.2-22.85-1.67-20.12-.08-22.25-3.8-22.25-4.86 0-1.75.3-5.77.3-2.35 0-3.64-.23-4.79-.23-3.95 0-2.2 4-3.11 14.73-2.88 35.15-4.48 33.18-4.48 37 0 1.21.76 1.37 1.37 1.37a15.86 15.86 0 0 0 1.82-.23 12.09 12.09 0 0 1 1.67-.08c2.89 0 .76.3 3.64.3 1.67 0 2.13-1.14 1.45-2.5a5.78 5.78 0 0 1-.84-2.5c0-1.22.46-3.8 3.49-3.8 2.66 0 3.42 1.82 3.42 3.49 0 2.36-1.14 2-1.14 3.72a1.62 1.62 0 0 0 1.59 1.59 12.11 12.11 0 0 0 1.59-.23 17.13 17.13 0 0 1 2.81-.08c3 0 1.59.3 3.27.3 1.44 0 1.67-1 1.67-1.44a25 25 0 0 0-.76-2.5c-.25-.84-.63-2.82-.9-4.11zm-9.42-11a2 2 0 0 1-2.13 2.21c-2.43 0-2.13-2.36-2.13-4.71 0-1.75.76-15.87 2.28-15.87 1.14 0 2 6.07 2 11.69zM344 219.48c0-.61-.15-1.67-1.75-1.67-5.76 0-.31.53-8.58.53-6.91 0-4.94-.53-8.28-.53-1.82 0-2 1-2 1.9 0 .68.07 1.29.07 2 .08.91.08 1.82.08 2.73a41 41 0 0 1-.15 4.33 31.63 31.63 0 0 0-.3 3.88c0 1.75.91 1.82 1.36 1.82.84 0 1.07-.84 1.45-1.44a1.87 1.87 0 0 1 1.75-1.14c1.44 0 1.59 1.21 1.59 2.81v28.47c0 3.34-.38 4-.91 5.32-.15.45-.84 2.5 1.51 2.5.91 0 1.83-.3 3.72-.3a21 21 0 0 1 2.2.08 18.82 18.82 0 0 0 2 .23 1.25 1.25 0 0 0 1.37-1.37 8.79 8.79 0 0 0-.76-2.66 24 24 0 0 1-.75-5.62V235.8c0-3 .6-3.95 1.82-3.95a2.16 2.16 0 0 1 1.75 1c.45.76.61 1.6 1.74 1.6.53 0 1.29-.3 1.29-1.67 0-2-.38-3-.38-8.12.04-3.97.16-2.3.16-5.18zM371.67 257v-30.24c0-5.24 1.37-7 1.37-8.2 0-.84-1.14-.76-1.37-.76-4.1 0-2.27.3-4.93.3-2.36 0-.91-.3-3.57-.3-1.21 0-1.52.53-1.52 1a3.9 3.9 0 0 0 .61 1.52 6.17 6.17 0 0 1 .75 3.19c0 2.51-.68 4-3.34 8.66-.91 1.59-3.42 6.45-3.42 4.48v-10.1a14.36 14.36 0 0 1 .76-5.09c.46-1 1.14-1.82 1.14-2.66a1 1 0 0 0-1.14-1 17.36 17.36 0 0 0-2 .23 19 19 0 0 1-3 .08c-2.28 0-2-.3-4-.3-.45 0-1.59-.08-1.59 1s1.37.84 1.37 8.89v29.84a49.36 49.36 0 0 1-.61 9 25 25 0 0 0-.68 3.26c0 1.14 1 1.22 1.59 1.22 2.43 0 1.9-.3 4.1-.3 3 0 1.22.3 4.1.3 1.37 0 1.67-.76 1.67-1.44 0-1-.69-2.13-1.14-3.49a19.61 19.61 0 0 1-.68-5.7c0-3.26 1.29-5.69 2.74-8.73 3.19-6.45 3.87-7 4.17-7s.31.31.31.53c0 1.44-.16 1.6-.16 3v12.07a28.93 28.93 0 0 1-.68 6.83 14.93 14.93 0 0 0-.83 2.58 1.29 1.29 0 0 0 1.45 1.37 34.67 34.67 0 0 1 3.95-.3c.91 0 1.9.08 2.81.15a12.1 12.1 0 0 0 1.67.15c.38 0 1.52 0 1.52-1.06a17.67 17.67 0 0 0-.91-3.57c-.13-1-.51-3.13-.51-9.41zM401.74 219.63a1.64 1.64 0 0 0-1.67-1.82c-1.44 0-2.66.3-4.78.3a11 11 0 0 1-1.59-.08 21.57 21.57 0 0 0-2.21-.15c-1.51 0-1.67 1-1.67 1.52s.38 1.06.83 2a8 8 0 0 1 1 3.79c0 2.89-1.52 3.57-2.35 3.57s-2.58-.31-2.58-3.26a9.85 9.85 0 0 1 .68-3.5 7.5 7.5 0 0 0 .91-2.81c0-.61-.31-1.37-1.52-1.37-.69 0-1.45.23-4 .23-3.49 0-3.41-.23-4.79-.23-1.67 0-1.74 1.14-1.74 1.75 0 3.11 1.59 3.57 1.59 9.94v29.54a29.43 29.43 0 0 1-.76 7.29c-.37 1.82-.76 2.5-.76 3.11 0 1.37.91 1.44 1.29 1.44 1.22 0 1.22-.3 4.18-.3 2.2 0 2.81.23 4 .23.45 0 2 .16 2-1.44 0-1.14-1.51-2.81-1.51-14.12 0-10.93.45-14 2.89-14s2.5 3 2.5 6.53v11.24c0 6.91-1.22 6.22-1.22 10.4 0 .61 0 1.44 1.52 1.44 2.28 0 1.59-.3 4.18-.3 3.11 0 .53.3 3.87.3.76 0 1.82-.23 1.82-1.59 0-1-.53-2-1.06-4.56a44.09 44.09 0 0 1-.76-9.26v-21.03c-.11-11.84 1.71-12.75 1.71-14.8zM416.62 217.2c-11.08 0-11.08 11.46-11.08 16.1V259c0 8.2 4.1 12.53 10.78 12.53 10 0 10.32-10.93 10.32-13.29v-28.7c0-4.15-.83-12.34-10.02-12.34zm1.67 40.32c0 1.06-.07 3.95-2.28 3.95-2 0-2.12-2.35-2.12-3.64V233.6c0-1.59-.15-4.25 2.2-4.25s2.2 2.58 2.2 3.88zM172.65 220.57c-.05-.92-.6-1.35-.65-2.27h-1.3c-.25 1.7.68 2.12 1.95 2.27zM168.42 228c-1.19.65-2.58 1.09-2.59 2.92 1.67-2.11 6-1.39 7.14.65-.49-1.74-2.92-3.9-3.57-2.6-.56-.06.42-1.09-.98-.97zM173 238.09c.73-1.8 1.6-5.47-2-5.84v1.3c-2.21.61-7-1-9.08 1 .3-.31.75 2.06.08 1.68.94.65 2.49 0 3.49.6 1.92 1.08.78 4 4.22 3.89.14-.62.92-.59.64-1.62-.38-.05-.92.05-1-.33 1.33-.51 1.96-1.36 3.65-.68zM197.63 239.07c-8 3.17-17 6.62-26 7.79.2 2.72 2.6 3.24 3.57 5.19a3.59 3.59 0 0 1 .65-2.59c7.89-2.71 14.59-6.61 22.07-9.73.08-.42.54-.68-.29-.66zM145.06 225.44z" transform="translate(-87.21 -179.72)"/><path class="cls-1" d="M180.43 220.24c-.07.37-.36.51-.65.65-.1-.59 1-2.07.32-1.29-.57.29-.54 1.19-1.3 1.29.14-.54 1.52-1.46.65-1.95.06.74-1.1 1.89-1.3 1.3 3.38-5.47-3.92 3-7.46.65.51.8-1.1 1-1 .33 1.23-.39 0-2.25-.33-2.59-.5.58-.54 1.62-1.94 1.29.28-.57 1.08-1 0-1.29-.9.5-.25.33-2.6.65.12 1.16.52 1.54 1 1.62-.8.83-1.08 2.17-2.6 2.27a6.31 6.31 0 0 0-1.3-2.92c-1-.24-.62.89-1.63.65-.84-.46-2.36-1.94-2.92-1.62.65 1 2.38.87 2.59 2.27-1.21.56-1.6.26-2.59.65.85-.1 1.06.45 1 1.3-.8 0-1-.51-1.62-.65 2.21 1.68 4.68 3.11 5.84 5.84a12.72 12.72 0 0 0 6.16-3.24c.42-1.48-.81-3.36.32-3.57 2 3.2 6.55 2.74 5.84 8.11 1.46-1.14 2.26-2.94 3.24-4.54-1.17-.77-3.54 1-3.24-1.62 2.33.74 5.94-1.61 5.52-3.59zM140.19 227.38c-.45-1-1.5-1.31-1.94-2.27h.32c.1-.66-.94.07-1 .33.73 1.07 5.67 3.87 2.62 1.94z" transform="translate(-87.21 -179.72)"/><path class="cls-1" d="M138.57 225.11c0 .39.47.2 0 0zM138.89 227.71c-1.61-.66-1-2.54-2.6-1.62.53.34-1.12 1.24-1.3 1.95-.71-1.34-.67.12.32.33.59-1.68 1.7-.59 1.62-1.95.43.46 1.32 2.12 1.96 1.29zM144.08 222.84c-.74-.15-1.63-1.8-2.27-1 .61.08-.18.53.33.65.44-1.12 1.62 1.38 1.94.35zM155.77 223.16c-.92 0-1.7-1.73-2.27-1 .75.16 1.37 2.09 2.27 1zM143.44 224.14c-1-.33-2-2.29-2.92-1.62.92.37 2.3 2 2.92 1.62zM141.81 224.79c-.85-.57-1.62-1.41-1.62-1.94 0 .43-.57.29-.65.65.46.5 2.81 1.93 2.27 1.29zM155.12 225.11c-.46-.75-2.09-2-2.6-1.62.26.83 1.61.55 1.62 1.62-1.47.27-1.92-2.16-2.92-1.3.57.08.74.56.65 1.3 1.5.12 1.87.4 3.25 0zM141.17 226.09c-.94-.28-1.79-2.3-2.6-1.62.82.38 1.97 2.12 2.6 1.62zM152.52 226.09c-1.08-.32-1.51-1.3-2.6-1.62.33.87 1.96 2.14 2.6 1.62zM148.63 226.41a8.23 8.23 0 0 1 2.6.65c-.12-1.19-2.07-2.24-2.6-2 .97.27-.31.74 0 1.35zM95.08 264.7c-1-.27-1.23.28-1.62.65a1.51 1.51 0 0 1 .33-1c-1.41.49-.81 1.08-1.3 2.6 1.35-.06 1.6 1 2.92 1 .38-2 3.66-2.82 3.24-4.55-1.52-.77-4.08-.29-3.57 1.3zM130.55 209.43a3.4 3.4 0 0 1 .29-.29zM167.3 216.18c.28-2.45-5.67-4.33-7.87-4.77-3.43-.68-6.08-2.36-9.41-2.83-4.24-.59-15.34-3-19.17.55 1.83-1.89 8.74.18 11.59.29 2.26.08 9.86-.32 10 2.5a21.67 21.67 0 0 1 7.58 1.46c2.39.95 4.77 2.31 7.28 2.8z" transform="translate(-87.21 -179.72)"/><path class="cls-1" d="M186.1 248.37a39.14 39.14 0 0 1-34.41 31.06 65.51 65.51 0 0 1 .3-9.08c.54-2.49 1.07-4.79 3.45-5.32 3.48-.77 7.8 3.08 12.65 1 2.8-1.85 2.56-6.74 6.49-7.46.83-4.25-4.18-2.64-5.52-3.89 2.46-.19 4.34.21 5.52 1.3 1-.58 1.46-2.75.32-3.57-2.29.85-3-.3-4.87-.65-.25.73-.9.73-2 1.3.77-1.37.39-1.14-.64-1.95.93-.31.21-1.08.64-1.3 0 .2.05.39.32.32a1.47 1.47 0 0 0-2.59-.65c-.4-1.05 1-.25.65-1.3-1-.29-.44 1.07-1.3 1-1.49-.9-3.59-.15-3.24-2.27-.09.76-1.21 0-1.3-.32.9-.87-.38-.71-.33-1.62.42 0 .46.42 1 .32a1.85 1.85 0 0 1 .32-1.29c-.63-.1-.64.44-1 .65.36-1.23.86-1-.33-1.62a5.31 5.31 0 0 0 1-1.3c-1.69-.15-1.17-2.5-2.27-3.24.87-1.61 2.07-1.79 2.59-2.92-.27.59-1.31-1.77.33-1.62-1.73-.52-.17-3.36.32-4.54-.46-1.16-.84-2.4-2-2.92-.92.24-2.43 1-2.92.65a1.83 1.83 0 0 0 .32 1.3c-.19-.1-1.25-.8-1.29 0a14.66 14.66 0 0 1 1.94 3.24c-1.93-1.75-2.3-3.49-4.22-3.89a7.44 7.44 0 0 0 .65 1.95c-.57-1-1 .89-1.3 0 .94.18-.49-1.26-.32-.32 1.15.76-1.52.4-1.62 1 .18 0 .37.26 0 .32-.55-.64-.75-1.62-1.62-1.95a11.31 11.31 0 0 0 1 3.24c-.68-.4-1.26-.9-1.95-1.3-.31.6 1 1.08 0 1.3-.07-.35-.53-.78-.65-.33.38.06.36.51.33 1-2 .07-2.26.58-3.57 1.3-.25-.83-.32-1.84-1-2.27-.87 1 .08 2.08.33 2.92-1.38-.33-2.62-.3-2.92-1-3.49-.35-4.51 3.49-6.17 3.89a11.06 11.06 0 0 1 3.25-4.87c-2-.91-1.58-1.24-2.92-1.95a1.52 1.52 0 0 0 1-.32c.56.71 3 1.21 1.63 1.95.84.8 1.59-.32 2.92 0 .1-.64-.44-.64-.65-1 2.11 1.69 2.62-1.55 5.19-1.29 0-1.32 1.37-1.23 1.62-2.28-.34 1.14 1.09.27 1.3 0-.94-.48-3.29-2.06-3.57-2.26.31 1 1.58 1 1.61 2.26-.53.66-1.53.85-2.27 1.3 0-1.21-1.22-2.37-1-1.94 0 .36.47.5 0 .65-.19-.28-1.75-1-1-.32.49.49 1.37.58 1.62 1.3-.82.35-1.14-1.4-1.62-.32a2.51 2.51 0 0 0 1.62 1 2.25 2.25 0 0 1-.65 1 2.34 2.34 0 0 1-1-.65c.61-.57-.08-1-.65-1.29v.49c-.94.72.5-.41.33.33-.33 0-.39.26-.65.32-1.13-.09 0-.88-.65-1-.41.84-1.54.15-1.62.65.48.6 1.68.48 1.62 1.62-1.16-1-2.92-1.41-3.57-2.92.44 0 1 1.32 1.3.33a2.25 2.25 0 0 0-2.27-.33c.7 1.47 4 2 3.57 3.57-1.11.06 0-1.09-1.3-1.29-.58.87 1.43.63.32 1-1.47-.58-2.4-1.71-3.57-2.59-.42.81 1.29 1 .33 1.3-.09-.68-.87.47-1.3-.33-1 2.09-4.92 3.43-5.19 3.57-1 .52-5.44 7.83-5.85 3.57-.29-3.08 5-6.62 7.14-8.12a2.28 2.28 0 0 1-1-.65c2.32-.45 2.52-2.47 4.87-3.9-.25-.07-.65 0-.65-.32.81 0 1-.61 1.62 0 .1-.64-.44-.64-.65-1 1.7.14 1-1.43 2.92-2.28-.87-.57-.31-1.28-1.3-1.29.51-.65 1.85.24 1 1 .83.25 1.52-1.24 1-1.3-.79.76-1.79-1-2.6-1.3-.29 1 1.07.44 1 1.3a4.91 4.91 0 0 1-2.27.33c.36.22 1.68 1.08 1 1.29 0-.57-2.16-1.54-1.3-1 1.57 1.33 0 2.11 0 .32-1.08 1-1.41-1-1.94-.32.66.09.65.87 1 1.29-1.51-.93-.19 1.24-1.3 1.3 1-.58-1.06-1.12-1-.65.93 1.49-.84-.54-1 .33.53.32.75.86.32 1.29-.46-.07-.54-.53-1-.65a18.42 18.42 0 0 1-2.92 3.25c.77-5.56 5.75-7 5.84-12.66a4.91 4.91 0 0 1-2.27 0c.17 1.63-2.08-.47-1 1-.92.27-.85-.46-1.63-.33-.12.56.48.83 0 1a3.23 3.23 0 0 0-1.94-1c-2 .59-.47 3.13-1.62 4.22h-1.3c-.52 2.21-2.27 4.09-1.95 6.17.09.58.94 1.05 1 1.62 0 .17-.79.36-.65 1l.07.28-.07.05c-.65.5.25 1.57 1 2.2v.73c-.73-.73-1.62 0-2.27.32-.75-.93.92-3.55-.65-4.22 0 .38.06.92-.32 1a.33.33 0 0 0-.65 0c1.84 1.44.56 6.35-1.94 6.49.71 1.27-1 2-1.62 1.95.95 2.05-1.06 1.84-1.62 2.27 3.36.82 1.91 5 .32 6.81-1-1.69-1.32.32-2-1.29 0 .88-.54.65 0 1.29-.46-.12-.54-.39-1 0-.1.64.44.64.65 1-.88 0-.65-.54-1.3 0-.15 1.34.87-.31 1 1-.5.93-1.51-.68-2 .32.3.1 1.42.88.65 1s-.71-.59-1.62-.32c4.5 1.66.56 5.13.32 7.79a6.12 6.12 0 0 0-1.95-2.27c-.28 1-.82-.42-1.62 0 0 1.19-1.66 1.24-.32 1.94-.65.54-.41 0-1.3 0-.37 1 .51.79.65 1.3-1 .19-1-.61-1.62 0 .86 1.39-.75.57-1 1.62 1.08 0 1.34.82 1.94 1.29-.79.29-1 2.1-1.94 1.3.25.83-1.27 1.49-.33 1.94 5.65-8.63 22.12-6.44 24-18.83.43 2.45 2 3.72 1.3 6.49-1.61.34-2.13 1.77-1.95 3.9-.64-.1-.64.44-1 .65-.06-.48.11-1.2-.32-1.3-.06 1.23-.58 1.48-.65 2-.32 0-.39-.26-.65-.33-5.17 4.17 1.72 7.7 4.87 9.41a6.5 6.5 0 0 1-1.22 2.36l-.87.64a6.84 6.84 0 0 1-2 2.26 42.81 42.81 0 0 1-1.83-1.74 39.12 39.12 0 0 1-7.14-10l-.15.06a44.51 44.51 0 0 0-6.07 2.72 45.86 45.86 0 0 0 86.88-15.76l-2.62 1.24c-1.31.58-2.9 1.33-4.51 2.07z" transform="translate(-87.21 -179.72)"/><path id="_Обтравочный_контур_" data-name="&amp;lt;Обтравочный контур&amp;gt;" class="cls-2" d="M104.49 249h.21a3.4 3.4 0 0 1 1.23-5.1 3.28 3.28 0 0 1 .39-.39 3.37 3.37 0 0 1 .58-.85 3.5 3.5 0 0 1 .82-1.14l.14-.12a3.38 3.38 0 0 1 .91-1.23 39 39 0 0 1 13.5-29.1l.19-.16a39 39 0 0 1 54.7 3.92c.39.45.78.91 1.15 1.37.69.86 1.35 1.74 2 2.66v.05c.55.81 1.06 1.66 1.55 2.52.33.58.65 1.17.95 1.78a38.88 38.88 0 0 1 4 15.75c2.23-.78 4.45-1.61 6.64-2.46a45.85 45.85 0 1 0-90.67 12.86 4.08 4.08 0 0 1 1.71-.36z" transform="translate(-87.21 -179.72)"/><path class="cls-2" d="M91.93 252.63c-1 .18-3.54.61-4-1.83-.34-2 1.42-2.51 2.34-2.67l6.36-1.13c.52-.09 2.93-.43 3.31 1.77.25 1.47-.55 2.53-2.35 2.84zm5.07-2.76c.28 0 .79-.17.72-.61s-.72-.39-1-.35l-5.34.91c-.28 0-.85.13-.77.63s.66.38 1 .32zM90.13 246.21a12.38 12.38 0 0 0-1.57.17c-.45.09-.65.19-.82.2s-.25-.21-.25-.31c0-.54 0-.36-.06-2.22 0-.19-.07-1-.08-1.18 0-.44-.09-.43-.1-.62s.22-.35.37-.36h1.1c.79 0 .73-.07 1.1-.09s.67-.07.69.22-.27.32-.48.54a1.13 1.13 0 0 0-.33.85c0 .78.53.94 1.22.9h.87c.07 0 .3 0 .29-.14a1.45 1.45 0 0 0-.17-.31 2 2 0 0 1-.24-.9c0-.58.08-1.68 1.84-1.78l3.35-.19a2 2 0 0 1 2.3 2v1.37a7.84 7.84 0 0 0 .06.83c0 .2.07.39.09.59s0 .34-.24.35-.32-.08-.72-.13a7.58 7.58 0 0 0-1.65-.09zm6.44-2.21c.81 0 .82-.45.81-.62a.65.65 0 0 0-.78-.59l-1.89.11c-.88 0-.86.46-.84.67s0 .57.79.53zM90.67 239.61c-1-.06-3.59-.21-3.45-2.67.12-2 2-2.13 2.89-2.08l6.39.37c.53 0 3 .24 2.83 2.47-.08 1.49-1.1 2.35-2.92 2.24zm5.57-1.55c.29 0 .81 0 .84-.43s-.61-.54-.85-.56l-5.41-.3c-.29 0-.87-.07-.89.44s.57.52.92.54zM91.13 233.19c-2.17-.37-2.42-.29-3-.38-.15 0-.46-.08-.37-.65.58-3.44 1.77-4.15 5-3.6 3.44.59 3.78 2 3.79 3 0 .69-.06.69.43.78a2.94 2.94 0 0 0 1.93-.22.85.85 0 0 1 .6-.17.29.29 0 0 1 .24.39c0 .18-.1.36-.14.54s-.08.4-.12.6a3.41 3.41 0 0 0-.08.59 3.61 3.61 0 0 1 0 .41.37.37 0 0 1-.43.36 26.28 26.28 0 0 0-3.45-.85zm3.67-1.75c.05-.32-.36-.71-1.75-.95-1.12-.19-1.78.06-1.84.39s1 .59 1.71.72 1.79.34 1.87-.16zM98.1 226.57c-.47.46-1.13 1.12-3.25.83s-3.36-.82-4.61-.87c-.71 0-.75.21-1.05.12s-.35-.19-.26-.53.15-.29.24-.58 0-.2.16-.82c.07-.25.24-.41.78-.25l2.75.78c1.84.53 2.71.35 2.8.06s-1-.74-2.08-1a9.89 9.89 0 0 0-2.66-.46c-.59 0-.76.28-1 .2a.35.35 0 0 1-.21-.48c.11-.41.26-.67.31-.87.13-.45-.05-.06.15-.79 0-.14.14-.36.68-.21a56.35 56.35 0 0 1 6.55 2.3c.87.41 4 2 3.76 2.62a8.43 8.43 0 0 0-.31.84 5 5 0 0 0-.11.53 4.85 4.85 0 0 1-.11.5c0 .13-.1.43-.48.32s-.36-.77-.63-1.24a3.21 3.21 0 0 0-1.14-1.12c-.12-.05-.21.06-.28.12zM101.32 218.63c1.11.46 1.24.47 1.38.39s.23-.42.58-.27c.17.07.27.15.67.32.18.07.36.15.54.21l.33.12c.39.16.31.38.26.46-.19.45-.8.08-1.34.41-.06 0-.41.27-1 1.79-.33.78-.49 1.3-.09 1.87.22.31.56.51.43.82a.35.35 0 0 1-.49.2 8.93 8.93 0 0 0-.83-.42c-.61-.25-.39-.08-.82-.27s-.21-.27-.21-.49a.37.37 0 0 0-.12-.31c-.4-.31-5.2-2.76-6.73-3.4-1.88-.78-1.24-.28-2.49-.8-.31-.13-.18-.37-.14-.46.13-.33.68-1.41.81-1.73.74-1.78.25-.81.73-2 .08-.19.18-.29.38-.21a5.44 5.44 0 0 1 .61.46 6 6 0 0 0 1.34.72zm-6.38-.63c-.17-.07-.42-.16-.55.14s.19.43 1.36 1c2.78 1.39 1.53.73 3.12 1.53 1.15.59 1.14.64 1.49.79a.5.5 0 0 0 .76-.33c.2-.5-.16-.63-.54-.79zM96.84 214.63c-.9-.51-3.14-1.75-1.92-3.91 1-1.79 2.69-1.06 3.5-.6l5.58 3.13c.46.26 2.56 1.51 1.46 3.46-.73 1.3-2 1.63-3.61.73zm5.68 1c.25.14.73.37.94 0s-.31-.76-.52-.87l-4.73-2.65c-.25-.14-.75-.44-1 0s.28.71.59.89zM100 209c-.48-.34-1.24-.86-1.58-1.07s-.68-.36-.9-.52-.23-.5-.13-.63.28-.36.43-.54.29-.38.42-.57c.31-.43.46-.73.69-1.05s1.18-1.13 3.5.53a3.81 3.81 0 0 1 1.42 1.58c.07.2.1.45.21.53a3.39 3.39 0 0 0 .86.13 5.7 5.7 0 0 1 2.6 1.09c1.09.78 1.77 2 1 3.1a4.38 4.38 0 0 1-.33.38 7 7 0 0 0-.52.69 5.63 5.63 0 0 0-.45.66c-.1.16-.18.33-.29.5a.39.39 0 0 1-.59.1 13 13 0 0 0-2.23-2zm1.19-1.44a.58.58 0 0 0 .87-.07c.27-.38-.32-.81-.53-1-.53-.39-.85-.32-1 0s0 .57.21.71zM106 211c.18.13.49.37.78 0 .18-.25.33-.49-.47-1.07s-2.38-.95-2.56-.69.13.28.25.37zM110.35 207.61a1.32 1.32 0 0 0 .54.24c.32.09.45.34.2.61-.44.48-.16.08-.6.56a3.36 3.36 0 0 0-.24.29 2.71 2.71 0 0 1-.23.33.26.26 0 0 1-.43 0 68 68 0 0 0-5.44-6.28c-1.63-1.75-2.56-2.07-2-2.72.17-.19.4-.37.75-.76.6-.66.09-.2.81-1 .56-.61.68 0 4.25 2.7a43.05 43.05 0 0 0 4.11 3.06c.26.14.64.38.82.46a5.11 5.11 0 0 1 .53.25.32.32 0 0 1 0 .49c-.25.28-.08 0-.54.5a3.74 3.74 0 0 0-.41.48 2.76 2.76 0 0 1-.2.29.35.35 0 0 1-.5 0c-.28-.25-.06-.39-.45-.74a.7.7 0 0 0-1.09 0 .76.76 0 0 0 .12 1.24zm-1.48-3l-1.1-1c-.92-.84-2.06-1.61-2.23-1.42s2 2.49 2.28 2.75.73.75 1.09.35a.44.44 0 0 0-.04-.71zM108 198.3c-.93-1.08-1.27-.92-1.72-1.44a.34.34 0 0 1 0-.55c.23-.2.25-.15.84-.67.43-.37.53-.52.64-.62a.3.3 0 0 1 .46 0 1.75 1.75 0 0 1 .25.61 2.31 2.31 0 0 0 .4.69c.43.5.77.29.91.17s.29-.46-.12-.94a1.76 1.76 0 0 0-.73-.49c-.22-.1-.35-.12-.44-.22a.32.32 0 0 1 .06-.5 4.09 4.09 0 0 1 .45-.34 2.17 2.17 0 0 0 .28-.22c.36-.31.52-.54.76-.75a.36.36 0 0 1 .54.06 10.54 10.54 0 0 0 1.86 2.76l3.09 3.55a10.55 10.55 0 0 0 1.49 1.45 9.63 9.63 0 0 1 .85.61.35.35 0 0 1-.07.54c-.56.49-.17.06-.7.51s-.27.33-.66.67-.37.08-.47 0c-.61-.7-.31-.76-1.31-1.93l-1.66-1.89c-.52-.6-1-1.1-1.38-.73s0 .93 1.57 2.77a9.92 9.92 0 0 0 2.32 2.15c.23.27 0 .47-.12.53s-.33.22-.7.54-.45.49-.66.66-.23.18-.43-.05-.12-.27-.33-.64a6.62 6.62 0 0 0-.94-1.34zM113.21 193.36a4 4 0 0 0-1.36-1.48c-.13-.2.09-.32.17-.38.37-.25.35-.15.77-.44a4.33 4.33 0 0 0 .54-.38 3.41 3.41 0 0 1 .34-.29.22.22 0 0 1 .33 0 1.61 1.61 0 0 1 .12.64 3.2 3.2 0 0 0 .5 1l1.26 1.87c.24.37.1-.84.07-1.26a3.63 3.63 0 0 0-.46-2 1.34 1.34 0 0 0-.53-.5.83.83 0 0 1-.3-.21c-.06-.08-.07-.22.16-.37.49-.33.26-.1.7-.39s.12-.16.88-.67c0 0 .24-.19.35 0a6.64 6.64 0 0 0 .77 1.69l3.76 5.6a9.45 9.45 0 0 0 1.27 1.65 4.24 4.24 0 0 1 .61.55c.13.2-.08.34-.15.38a3 3 0 0 1-.33.18 5.4 5.4 0 0 0-.54.32 8.48 8.48 0 0 0-.7.55.29.29 0 0 1-.44-.08 3.09 3.09 0 0 1-.16-.58 6.27 6.27 0 0 0-.72-1.35l-1.5-2.24c-.17-.25-.16-.3-.34-.57 0 0-.07-.1-.12-.06s-.11.22.1 1.81a4.32 4.32 0 0 0 .58 2 4.51 4.51 0 0 0 .83 1 3.21 3.21 0 0 1 .65.5c.09.13.12.31-.13.48-.53.36-.23.08-.8.45-.4.27-.27.26-.72.56-.11.08-.31.19-.45 0a5.78 5.78 0 0 1-.28-.69 10.23 10.23 0 0 0-1-1.74zM119.56 189.6c-.94-1.82-.61-.62-1.16-1.69-.09-.16-.07-.44.38-.67s.44-.13 1.5-.67c1.38-.71 1.06-.64 1.54-.89.15-.08.41-.13.6.24s.23.59.58 1.27a4.32 4.32 0 0 0 .48.79 1.51 1.51 0 0 1 .23.3.46.46 0 0 1-.13.65c-.19.1-.43-.07-.74-.18a.93.93 0 0 0-.79 0 .73.73 0 0 0-.29 1.06c.11.21.38.59 1.12.21.24-.12.45-.31.7-.44.61-.31.92 0 1.07.25a.71.71 0 0 1-.38 1l-1.2.61c-.24.12-.31.31-.06.81l1.18 2.29c.37.72.64.62.9.49a1.58 1.58 0 0 0 .87-.82c.15-.31.07-.53.3-.66.08 0 .28-.1.44.22.3.57.1.35.33.78a4.45 4.45 0 0 0 .24.44 4 4 0 0 1 .24.43c.12.24.2.5-.28.75-2.08 1.07-.64.24-2.24 1.05-1.08.56-.37.28-1.12.67a.3.3 0 0 1-.44-.11c-.07-.14-.05-.24-.18-.69a10 10 0 0 0-.62-1.5zM136.94 190.16c.31 1.16.37 1.26.53 1.33s.47-.07.57.3c0 .18 0 .3.16.73.05.18.1.38.16.55s.08.22.11.34c.1.41-.12.47-.2.49-.48.12-.56-.59-1.15-.81-.06 0-.46-.16-2 .27-.82.22-1.33.41-1.54 1.08-.11.37-.06.75-.38.84a.35.35 0 0 1-.46-.26 9.23 9.23 0 0 0-.18-.92c-.17-.64-.16-.36-.29-.82s.09-.32.26-.46a.37.37 0 0 0 .17-.29c0-.51-1-5.81-1.41-7.41-.53-2-.54-1.16-.89-2.46-.08-.33.19-.36.28-.39.35-.09 1.52-.32 1.87-.41 1.87-.5.8-.3 2-.63.19 0 .34 0 .4.17a5.15 5.15 0 0 1 0 .77 6.46 6.46 0 0 0 .24 1.5zm-3.38-5.44c-.05-.18-.14-.44-.45-.35s-.22.41 0 1.69c.59 3 .36 1.66.69 3.41.23 1.27.19 1.3.28 1.66a.5.5 0 0 0 .72.4c.52-.14.4-.51.3-.91zM140.26 183.45c0-.2-.16-.39-.31-.36-.39.05-.31.61-.28 1 .17 2.49.33 3.51.47 6.16.06 1 .13 2.07-1 2.24-.84.12-.92-.33-1-.56-.08-.58-.1-1.06-.2-1.72 0-.28-.11-.58-.16-.86s0-.41.19-.44.2.09.24.21.05.22.17.2.13-.28.12-.46c-.05-1.11-.33-4.08-.47-5.09a15.3 15.3 0 0 0-.39-2c-.22-.82-.21-.52-.26-.84s.21-.34.36-.36c.46-.07 1.2-.11 1.86-.2.37-.05.76-.12 1.12-.2l.94-.17c.12 0 .38 0 .41.27s-.05.09-.1.94a8.14 8.14 0 0 0 .08 1.71l1 6.89a4.08 4.08 0 0 0 .24 1 3.57 3.57 0 0 1 .24.63c0 .13 0 .27-.24.31s-.58 0-1.08.1a6 6 0 0 0-.85.19c-.21 0-.27-.1-.28-.2a2.94 2.94 0 0 1 .06-.73 6.29 6.29 0 0 0-.06-1.85zM147 187c0-.27-.14-.3-.19-.3-.36 0-.43 1.61-.56 2.76s0 2.22-.63 2.23-.11-.07-.66 0c-.71 0-.14.07-.91.09a.27.27 0 0 1-.31-.26c0-.37.23-.38.71-2.49a13.13 13.13 0 0 0 .44-2.32c0-.24-.87-.12-.92-2l-.07-2.42c-.06-2.22 1.14-2.37 2-2.39h1.59c.22 0 .44 0 .66-.07a5 5 0 0 1 .5-.05c.12 0 .31 0 .31.26a12.72 12.72 0 0 0-.18 2.16l.2 7a8.37 8.37 0 0 0 .14 1.4 3.72 3.72 0 0 1 .19.74c0 .06 0 .29-.36.3a5.28 5.28 0 0 0-.89 0c-.66 0-.54.09-.88.09s-.33-.16-.33-.23.1-.33.15-.66a6.94 6.94 0 0 0 .11-1.31zm-1.2-2.91a.55.55 0 0 0 .58.59c.34 0 .55-.3.54-.71v-1c0-.2-.07-.66-.58-.64s-.55.29-.54.68zM155.83 185.12c.66-3.72 1.8-4.75 3.47-4.46.72.13 1.51.43 1.42.9a7.92 7.92 0 0 0-.29 1.17c-.13.75-.08.85-.13 1.13-.08.5-.31.6-.45.58s-.33-.25-.43-.38a.84.84 0 0 0-.61-.45c-.82-.14-1 .81-1.2 2.11l-.28 1.57c-.23 1.3-.52 2.82.55 3a.75.75 0 0 0 .71-.24.45.45 0 0 1 .39-.17c.23 0 .19.28.17.39-.05.3-.11.56-.16.83s-.08.56-.13.84-.23.92-1.61.67c-2.37-.42-2.25-2.85-1.87-5zM161.22 192.24a1.24 1.24 0 0 0 0 .59c.06.34-.11.55-.47.45-.62-.18-.14-.12-.76-.29a2.31 2.31 0 0 0-.36-.09 3.36 3.36 0 0 1-.4-.06.27.27 0 0 1-.21-.38 69.17 69.17 0 0 0 3.26-7.64c.86-2.24.74-3.21 1.59-3 .24.07.5.2 1 .35.86.25.22 0 1.25.29.8.23.32.59-.57 5a42 42 0 0 0-.95 5c0 .29-.06.74-.06.93a4.79 4.79 0 0 1 0 .58.32.32 0 0 1-.45.21c-.36-.1 0-.08-.68-.27a4.07 4.07 0 0 0-.61-.16 2.53 2.53 0 0 1-.35-.05.37.37 0 0 1-.25-.44c.11-.36.33-.22.48-.73a.7.7 0 0 0-.51-1 .76.76 0 0 0-.95.71zm2.08-2.66l.41-1.43c.35-1.2.55-2.55.31-2.63s-1.37 2.88-1.48 3.26-.36 1 .16 1.14a.45.45 0 0 0 .6-.34zM167.81 192.6c-.42-.52-1-1.25-.45-3.32s1.21-3.24 1.41-4.47c.11-.7-.12-.76 0-1.06s.23-.33.56-.19.27.19.55.3.2 0 .79.26c.24.1.37.29.16.8l-1.11 2.64c-.73 1.77-.67 2.66-.39 2.78s.86-.91 1.29-1.94a10 10 0 0 0 .77-2.58c0-.6-.18-.79-.07-1.06a.36.36 0 0 1 .51-.15c.39.16.63.33.82.41.44.18.08 0 .76.25.14.06.34.18.13.69a56.94 56.94 0 0 1-3.06 6.23c-.51.82-2.41 3.69-3 3.42a8.53 8.53 0 0 0-.8-.41c-.17-.07-.35-.13-.51-.18a4.1 4.1 0 0 1-.48-.16c-.12-.05-.41-.15-.26-.51s.81-.27 1.3-.48a3.2 3.2 0 0 0 1.25-1c.02-.1-.11-.19-.17-.27zM174.35 188.6c.7-1.24.44-1.5.78-2.11a.34.34 0 0 1 .53-.15c.27.15.23.18.9.57.5.28.67.32.81.4a.29.29 0 0 1 .15.43 1.75 1.75 0 0 1-.48.45 2.07 2.07 0 0 0-.52.61c-.32.58 0 .83.14.92s.53.13.85-.44a1.75 1.75 0 0 0 .22-.85c0-.24 0-.37.06-.49s.19-.28.49-.11a3.39 3.39 0 0 1 .41.27l.3.19c.41.24.69.31 1 .46a.36.36 0 0 1 .13.54 10.83 10.83 0 0 0-2 2.68l-2.31 4.1a9.76 9.76 0 0 0-.86 1.88 10.24 10.24 0 0 1-.3 1 .35.35 0 0 1-.53.11c-.65-.36-.11-.14-.72-.48s-.4-.15-.85-.4-.2-.33-.14-.45c.46-.81.62-.54 1.38-1.89l1.23-2.19c.39-.69.71-1.27.23-1.55s-.9.28-2.09 2.4a10 10 0 0 0-1.25 2.91c-.17.31-.45.11-.54.06s-.31-.23-.74-.47-.6-.27-.84-.4c-.08 0-.25-.16-.1-.42s.22-.21.49-.52a6.89 6.89 0 0 0 .95-1.33zM185.35 195.29a3.94 3.94 0 0 0 1.1-1.68c.16-.18.33 0 .41.08.33.29.23.3.61.64a3.92 3.92 0 0 0 .5.43c.12.09.25.16.36.26a.23.23 0 0 1 0 .34 1.79 1.79 0 0 1-.58.27 3.14 3.14 0 0 0-.89.72l-1.47 1.65c-.29.33.85-.11 1.24-.23 1.13-.37 1.47-.52 1.84-.93a1.26 1.26 0 0 0 .35-.64 1 1 0 0 1 .13-.34c.07-.07.2-.12.4.07.44.4.16.23.55.58s.18.08.86.69c0 0 .24.19.11.33a7 7 0 0 0-1.45 1.15l-4.52 5a9.33 9.33 0 0 0-1.3 1.64 4 4 0 0 1-.38.73c-.16.18-.35 0-.41-.05a2.44 2.44 0 0 1-.26-.28c-.14-.15-.29-.31-.44-.44a6.75 6.75 0 0 0-.7-.54.29.29 0 0 1 0-.45 4.31 4.31 0 0 1 .53-.3 6.43 6.43 0 0 0 1.13-1l1.8-2c.21-.23.25-.23.47-.47 0 0 .08-.09 0-.13s-.24-.06-1.74.53a4.38 4.38 0 0 0-1.76 1 4.24 4.24 0 0 0-.74 1 3.32 3.32 0 0 1-.33.75c-.1.11-.27.19-.49 0-.48-.43-.13-.21-.63-.67s-.32-.2-.72-.56c-.1-.09-.25-.25-.09-.44a5.77 5.77 0 0 1 .6-.44 10.93 10.93 0 0 0 1.44-1.39zM194.16 205.07a11 11 0 0 0 1.24-1c.33-.32.45-.51.58-.6s.32 0 .38.12c.31.45.15.33 1.23 1.85l.7 1c.27.35.31.32.41.48a.32.32 0 0 1-.12.5c-.29.21-.42.26-.92.61-.65.46-.58.45-.88.66s-.53.42-.7.18.06-.41.12-.71a1.09 1.09 0 0 0-.18-.89c-.45-.64-.95-.51-1.51-.11l-.71.5c-.06 0-.25.18-.18.27a1.76 1.76 0 0 0 .31.17 2 2 0 0 1 .68.64c.33.47.83 1.47-.61 2.48l-2.73 1.94a2 2 0 0 1-3-.5c-.38-.54-.17-.36-.74-1.16a6.11 6.11 0 0 0-.49-.67c-.13-.16-.27-.29-.39-.46s-.18-.28 0-.42.32-.1.67-.27a7.5 7.5 0 0 0 1.45-.79zm-4.27 5.31c-.66.47-.46.82-.36 1a.64.64 0 0 0 1 .08l1.55-1.09c.72-.51.48-.84.35-1s-.32-.48-1 0zM191.65 215.92a1.32 1.32 0 0 0-.4.43c-.19.28-.47.31-.64 0-.31-.56 0-.18-.33-.75a2 2 0 0 0-.19-.32 3.27 3.27 0 0 1-.23-.33.27.27 0 0 1 .12-.42 66.54 66.54 0 0 0 7.72-3.06c2.2-1 2.8-1.73 3.22-1 .12.22.22.5.46 1 .43.79.16.14.67 1.1.4.73-.18.64-4 3.12a42.22 42.22 0 0 0-4.24 2.87l-.71.62c-.29.28-.31.36-.41.42a.32.32 0 0 1-.46-.17c-.18-.33 0-.08-.29-.67a3.37 3.37 0 0 0-.32-.54 2.75 2.75 0 0 1-.21-.29.36.36 0 0 1 .14-.48c.33-.18.4.08.85-.18a.7.7 0 0 0 .32-1 .77.77 0 0 0-1.07-.35zm3.35-.4l1.31-.71c1.1-.6 2.21-1.41 2.08-1.63s-3 1.06-3.35 1.25-1 .44-.7.92a.45.45 0 0 0 .66.18zM201.23 216.81c1.32-.53 1.29-.89 1.93-1.15a.34.34 0 0 1 .51.22c.11.28.06.29.34 1 .21.54.32.67.38.82a.29.29 0 0 1-.15.43 1.65 1.65 0 0 1-.66 0 2.32 2.32 0 0 0-.78.14c-.62.24-.53.63-.46.8s.33.43.94.2a1.77 1.77 0 0 0 .7-.52c.17-.18.23-.29.36-.34s.33-.09.46.22c.06.16.1.31.15.47a2 2 0 0 0 .11.34c.18.44.34.66.46 1a.36.36 0 0 1-.24.49 10.68 10.68 0 0 0-3.21.84l-4.38 1.74a9.72 9.72 0 0 0-1.86.92 9.68 9.68 0 0 1-.86.59.35.35 0 0 1-.48-.25c-.27-.69 0-.18-.25-.83s-.22-.37-.4-.84c-.12-.31 0-.38.17-.43.87-.34.83 0 2.26-.6l2.33-.92c.74-.29 1.36-.54 1.15-1.06s-.87-.35-3.13.55a10.08 10.08 0 0 0-2.81 1.48c-.33.13-.42-.2-.46-.29s-.1-.38-.28-.84c-.24-.61-.3-.59-.4-.84 0-.08-.09-.27.19-.39.12 0 .29 0 .7-.1a6.69 6.69 0 0 0 1.58-.45zM204 223.43a6.17 6.17 0 0 0 1.33-.54 2.44 2.44 0 0 1 .58-.33c.17 0 .24.06.31.3.2.77 0 .18.19.93s.19.44.31.9a.22.22 0 0 1-.19.31 2.34 2.34 0 0 1-.78 0 5.06 5.06 0 0 0-1.36.21c-1.93.51-2.19.59-2.14.77.11.45.35.28.59 1.16.15.58.21 1.7-1.54 2.15l-2.9.76c-1.92.5-2.65-.52-2.9-1.45-.07-.3-.12-.62-.18-.92s-.13-.55-.19-.81a10.22 10.22 0 0 0-.35-1.05.31.31 0 0 1 .26-.42 15.81 15.81 0 0 0 2.52-.34zm-5.92 3.47c-.66.17-1 .28-.87.83s.77.54 1.2.43l1.36-.36c.31-.08.88-.25.73-.85s-.76-.49-1.15-.38zM126 286.71c.73-1.33.14-.82.49-1.46a.24.24 0 0 1 .37-.09c.09.05.16.12.25.18a1.81 1.81 0 0 0 .32.22 4.41 4.41 0 0 0 .69.25.25.25 0 0 1 .12.34c-.06.1-.17.1-.46.4a4 4 0 0 0-.63.85l-1.15 2.23c-.13.23-.42.79-.18.92s.69-.1 2.22-2.89.23-2.44.78-3.45a.24.24 0 0 1 .35-.1c.31.17.19.14.47.3s.34.14.51.23c.4.22.74.85-.81 3.71s-3.57 4.59-4.3 4.19c-.08 0-.16-.13-.24-.18s-.19-.06-.29-.11-.23-.29-.23-.51 0-.37-.09-.43-.35.08-.46.14-.33.19-.49.1-.19-.13-.3-.19l-.33-.15c-.88-.48.59-4.13 1.17-5.19.46-.84 2.14-3.68 3-3.21.25.14.12.14.48.34a1.39 1.39 0 0 0 .32.14 2.05 2.05 0 0 1 .24.08.19.19 0 0 1 .09.3c-.05.09-.15.14-.39.27-.53.28-1.33.73-2.55 3-1.07 2-1.07 2.61-.92 2.7.33.18.74-.6 1-1zM131.91 289.5c.53-1.42 0-.83.28-1.51a.25.25 0 0 1 .35-.14 3.05 3.05 0 0 1 .27.14 2.31 2.31 0 0 0 .35.17 4.37 4.37 0 0 0 .71.15.25.25 0 0 1 .16.32c0 .11-.16.13-.4.46a3.82 3.82 0 0 0-.5.93l-.89 2.37c-.09.25-.3.85 0 .94s.67-.19 1.79-3.18-.12-2.45.28-3.53a.25.25 0 0 1 .34-.14c.33.13.2.12.5.23s.35.09.54.16c.43.16.86.73-.28 3.79s-2.88 5-3.66 4.75c-.09 0-.18-.11-.26-.14s-.2 0-.31-.07-.26-.25-.29-.47 0-.37-.15-.41-.33.13-.44.21-.3.23-.47.16-.21-.11-.32-.15-.23-.06-.35-.1c-.94-.36 0-4.17.44-5.3.33-.89 1.61-4 2.53-3.6.26.1.14.13.52.26a1.5 1.5 0 0 0 .34.1 1.49 1.49 0 0 1 .25.05.19.19 0 0 1 .13.27c0 .1-.13.17-.35.33-.49.35-1.21.91-2.1 3.29-.78 2.1-.69 2.73-.53 2.8.35.13.64-.69.8-1.13zM138.15 291.43c.32-1.48-.09-.83.06-1.54a.25.25 0 0 1 .33-.19 2.19 2.19 0 0 1 .29.11 1.83 1.83 0 0 0 .37.12 4.57 4.57 0 0 0 .73 0 .25.25 0 0 1 .21.29c0 .12-.14.15-.34.52a3.91 3.91 0 0 0-.36 1l-.54 2.47c-.06.26-.18.88.08.94s.64-.29 1.32-3.41-.46-2.4-.21-3.53a.24.24 0 0 1 .31-.19c.34.08.21.08.53.16s.36 0 .55.08c.45.1 1 .6.26 3.79s-2.14 5.41-3 5.23c-.09 0-.19-.08-.28-.11s-.21 0-.31 0-.29-.22-.36-.42-.09-.36-.2-.39-.31.18-.4.27-.27.27-.45.23l-.33-.1h-.36c-1-.21-.58-4.14-.32-5.32.2-.93 1-4.14 2-3.93.28.06.16.1.55.19a1.51 1.51 0 0 0 .34 0 1.53 1.53 0 0 1 .26 0 .19.19 0 0 1 .16.25c0 .11-.11.18-.3.38-.43.41-1.07 1.07-1.61 3.56-.48 2.19-.3 2.8-.13 2.84.37.08.54-.77.64-1.23zM142.68 295.84c.41.05.67.38.58 1.1-.07.54-.28 1.06-.86 1s-.63-.89-.6-1.17c.09-.84.53-.98.88-.93zM145.54 298.15c-.33 0-.52-.6-.87-2.82a21.83 21.83 0 0 1-.23-3.19V291c.09-1.9.18-2.29.66-2.26h.56a4.47 4.47 0 0 0 .46 0c.12 0 .3.07.29.24s-.17.42-.31 1a10.4 10.4 0 0 0-.21 1.79 23.18 23.18 0 0 0 .1 3.55c0 .08.06.48.15.49s.17-.35.21-.49a25 25 0 0 0 .55-3.89 6.66 6.66 0 0 0-.07-1.53 5.71 5.71 0 0 1-.18-.82c0-.13.13-.28.38-.26s.29.05.44.06h.25a.5.5 0 0 1 .17 0c.37 0 .62.06.51 2.25 0 .42-.06.82-.11 1.23a17.52 17.52 0 0 1-.7 3.32c-.67 2.25-.87 2.53-1.17 2.52H146c-.26-.09-.32-.04-.46-.05zM150.67 297.57c.06.13.16.25.16.35a.27.27 0 0 1-.29.29 2 2 0 0 1-.28 0h-.36a2.05 2.05 0 0 0-.29 0 3.22 3.22 0 0 1-.32.06.22.22 0 0 1-.25-.23 1.82 1.82 0 0 1 0-.4 10 10 0 0 0 .14-1.43c.09-1.48.12-1.63.22-3.58.18-3.13-.25-3.73.47-3.77h.84c.71 0 .16-.06 1-.11.42 0 .44.22.45.46.06 1 .23 2 .42 3.43a33.24 33.24 0 0 0 .59 4c.06.22.15.57.2.71.09.31.15.34.15.44s0 .25-.28.27 0-.06-.58 0a3 3 0 0 0-.49 0 1.73 1.73 0 0 1-.28.06.28.28 0 0 1-.29-.27c0-.29.19-.25.16-.66a.56.56 0 0 0-.63-.59.63.63 0 0 0-.46.97zm.8-2.77l-.06-1.18c0-1-.25-2-.45-2s-.28 2.51-.26 2.82 0 .83.41.81a.35.35 0 0 0 .36-.45zM155.74 291.87c0-.08 0-.21.21-.25s.21 0 .64 0c.61-.09.26-.11.75-.19.28 0 .38.11.4.2a7.48 7.48 0 0 0 .11 1.22l.47 3.06a4 4 0 0 0 .17.66 1.61 1.61 0 0 1 .19.49c0 .25-.08.42-.84.54-2.05.32-3.67-2.32-4-4.67s.19-4.45 2.08-4.75c1-.16 1.25.21 1.3.46.08.53 0 .15.08.84s.19.59.25 1-.16.55-.45.37-.46-.46-1-.37c-.88.13-.94 1.49-.8 2.4.25 1.62 1.21 2.82 1.5 2.78s.09-.29.07-.41l-.3-1.93c0-.12 0-.43-.33-.46h-.08a.43.43 0 0 1-.19 0c-.11 0-.09-.07-.1-.13zM158.27 290.62c-.21-.79-.71-2.75 1.18-3.24 1.57-.41 2.08 1 2.26 1.67l1.28 4.9c.1.4.53 2.28-1.18 2.73-1.14.3-2-.26-2.4-1.66zm2.51 3.82c.06.22.19.62.53.53s.26-.59.22-.77l-1.09-4.2c-.06-.22-.16-.66-.54-.56s-.26.55-.19.82zM162.63 289.06a3.77 3.77 0 0 0-.94-1.62c-.19-.2-.21-.48 0-.56s.14 0 .49-.13.23-.15.4-.21c.33-.13.69.14 1.19.52.78.6.89.71.94.69s0-.11 0-.13l-.12-.33a2.58 2.58 0 0 0-.48-.76c-.13-.12-.23-.14-.25-.22s0-.23.21-.33a6.21 6.21 0 0 1 .69-.2 2.21 2.21 0 0 0 .32-.15 2.85 2.85 0 0 1 .33-.15c.08 0 .27-.1.35.11a6.17 6.17 0 0 0 .43 1.68l2 5.38a10.56 10.56 0 0 0 .67 1.31c0 .08.08.21-.17.31s-.42.1-.59.17c-.44.16-.12.1-.57.27a.28.28 0 0 1-.39-.15 5.93 5.93 0 0 0-.23-1.12l-.64-1.7c-.27-.73-1.37-1.93-1.7-1.81-.13 0 .09.48.16.67l1.15 3.06c.33.87.59.81.73 1.16a.24.24 0 0 1-.18.31c-.27.1-.37.08-.65.19s-.5.25-.63.29-.35 0-.39-.12a1.15 1.15 0 0 1 0-.35 2 2 0 0 0-.15-.79zM166.75 286.73c-.52-1-.4-.41-.78-1.16a.3.3 0 0 1 .16-.41l.15-.06c.13 0 .27-.09.39-.15s.54-.33.68-.4a.2.2 0 0 1 .29.08 5.62 5.62 0 0 0 .28 1.18c.21.43.52.52.76.4s.25-.55.1-.83a1.51 1.51 0 0 0-.49-.53c-.15-.12-.27-.18-.32-.28s-.13-.28.17-.43.31-.1.54-.21.3-.21.53-.32.4-.14.69.43a3.58 3.58 0 0 1 .31 1.69 2 2 0 0 0 .11 1.12 19.81 19.81 0 0 0 1.39 2 22 22 0 0 0 1.71 1.9c.41.4.55.49.6.6s.06.3 0 .35-.37.13-.61.25-.36.24-.53.32c-.41.21-.67-.41-1.73-1.87-.56-.78-1.53-2.37-1.75-2.25s-.1.32.31 1.13l.59 1.16a8.08 8.08 0 0 0 1 1.63c.27.31.44.39.49.5s.06.22-.14.31a5.11 5.11 0 0 0-.62.26c-.41.2-.48.3-.66.39s-.23.05-.36-.2-.13-.38-.43-1zM175.85 289.79c.12.08.27.13.32.22a.27.27 0 0 1-.11.4 2.08 2.08 0 0 1-.25.12 2.87 2.87 0 0 0-.31.19 1.36 1.36 0 0 0-.24.17 2.05 2.05 0 0 1-.25.2.21.21 0 0 1-.33-.07 2.41 2.41 0 0 1-.16-.37 9.51 9.51 0 0 0-.6-1.31c-.66-1.33-.71-1.47-1.59-3.21-1.41-2.81-2.08-3.11-1.48-3.5.17-.11.38-.2.73-.43.59-.38.1-.13.83-.59.34-.23.49 0 .62.17.57.88 1.19 1.62 2.07 2.77a34.56 34.56 0 0 0 2.52 3.17c.17.16.41.42.53.52s.3.22.35.3a.25.25 0 0 1-.11.37c-.25.16-.06 0-.51.27a3.68 3.68 0 0 0-.41.28 1.31 1.31 0 0 1-.21.18.29.29 0 0 1-.39-.08c-.16-.25 0-.31-.19-.66a.56.56 0 0 0-.85-.19.64.64 0 0 0 .02 1.08zm-.69-2.8l-.63-1c-.54-.83-1.25-1.65-1.42-1.55s1 2.31 1.18 2.57.41.73.76.49a.35.35 0 0 0 .11-.5zM178.71 286.1c.33-.25.75-.2 1.19.38.32.43.54 1 .07 1.31s-1.08-.2-1.24-.42c-.52-.66-.3-1.06-.02-1.27zM176.38 280.81c-.76-.86-.5-.3-1.06-.93a.3.3 0 0 1 .06-.44l.13-.09a4.12 4.12 0 0 0 .33-.25c.22-.19.44-.46.56-.56a.2.2 0 0 1 .31 0 5.73 5.73 0 0 0 .57 1.07c.32.36.63.37.83.19s.11-.59-.11-.83a1.67 1.67 0 0 0-.61-.39 1.11 1.11 0 0 1-.38-.18c-.06-.06-.19-.24.06-.46s.28-.17.46-.34.24-.28.43-.45.35-.23.77.25a3.54 3.54 0 0 1 .73 1.55 2 2 0 0 0 .4 1.05 19.14 19.14 0 0 0 4 3 4.42 4.42 0 0 1 .73.42c.11.12.14.27 0 .35s-.33.22-.53.4-.28.33-.43.45c-.34.3-.76-.23-2.15-1.38-.74-.62-2.08-1.9-2.27-1.73s0 .33.59 1l.86 1a8.49 8.49 0 0 0 1.41 1.31c.35.23.53.27.61.36s.1.19-.06.34-.23.14-.53.41-.38.41-.54.55-.2.11-.39-.1-.23-.34-.65-.82zM181 277.57a.73.73 0 0 0-.14.55.42.42 0 0 1-.08.4.33.33 0 0 1-.51 0c-.28-.26-.31-.6-.75-1.2-.62-.84-.86-.87-.46-1.29.21-.23.52-.46.9-.87.72-.79 0-.11.79-1a.23.23 0 0 1 .37 0 27.72 27.72 0 0 1 2.23 3.36 19.16 19.16 0 0 0 1.61 2.39c.31.28.5.11.58 0a.6.6 0 0 0 .17-.53.69.69 0 0 1 .11-.46.3.3 0 0 1 .43 0c.15.14.22.43.55.9.52.76.76.79.38 1.21-.54.58-.24.15-.84.8s-.51.64-.81 1c-.07.07-.28.26-.46.08s-.21-.47-2-3.1a25.4 25.4 0 0 0-1.57-2.29.35.35 0 0 0-.5.05z" transform="translate(-87.21 -179.72)"/></svg>